<svg xmlns="http://www.w3.org/2000/svg" viewBox="0 0 760 540" role="img" aria-labelledby="title desc">
  <title id="title">Engineering Physics Capstone cohort map</title>
  <desc id="desc">Nine project nodes connected to major engineering physics themes.</desc>
  <rect width="760" height="540" fill="#f8faf5"/>
  <g fill="none" stroke="#d8ded5" stroke-width="2">
    <path d="M380 92 C300 150 250 210 198 296"/>
    <path d="M380 92 C360 178 354 248 358 332"/>
    <path d="M380 92 C466 154 528 224 584 324"/>
    <path d="M198 296 C280 280 430 282 584 324"/>
    <path d="M198 296 C260 376 344 418 470 414"/>
    <path d="M584 324 C540 384 506 404 470 414"/>
  </g>
  <g font-family="Inter, Arial, sans-serif" text-anchor="middle">
    <circle cx="380" cy="92" r="58" fill="#115740"/>
    <text x="380" y="86" fill="#ffffff" font-size="22" font-weight="800">EP</text>
    <text x="380" y="112" fill="#ffffff" font-size="14" font-weight="700">Capstone</text>

    <g transform="translate(198 296)">
      <circle r="54" fill="#315f82"/>
      <text y="-8" fill="#ffffff" font-size="17" font-weight="800">Sensors</text>
      <text y="16" fill="#ffffff" font-size="13" font-weight="700">7 projects</text>
    </g>

    <g transform="translate(358 332)">
      <circle r="50" fill="#25706d"/>
      <text y="-8" fill="#ffffff" font-size="17" font-weight="800">Autonomy</text>
      <text y="16" fill="#ffffff" font-size="13" font-weight="700">3 projects</text>
    </g>

    <g transform="translate(584 324)">
      <circle r="54" fill="#a95846"/>
      <text y="-8" fill="#ffffff" font-size="17" font-weight="800">Bio + Med</text>
      <text y="16" fill="#ffffff" font-size="13" font-weight="700">3 projects</text>
    </g>

    <g transform="translate(470 414)">
      <circle r="48" fill="#7a5a24"/>
      <text y="-8" fill="#ffffff" font-size="17" font-weight="800">Modeling</text>
      <text y="16" fill="#ffffff" font-size="13" font-weight="700">3 projects</text>
    </g>

    <g fill="#fffdfa" stroke="#b9975b" stroke-width="3">
      <circle cx="118" cy="174" r="27"/>
      <circle cx="222" cy="114" r="27"/>
      <circle cx="304" cy="202" r="27"/>
      <circle cx="454" cy="190" r="27"/>
      <circle cx="564" cy="142" r="27"/>
      <circle cx="640" cy="232" r="27"/>
      <circle cx="140" cy="414" r="27"/>
      <circle cx="280" cy="454" r="27"/>
      <circle cx="620" cy="444" r="27"/>
    </g>
    <g fill="#0b372a" font-size="16" font-weight="850">
      <text x="118" y="180">01</text>
      <text x="222" y="120">02</text>
      <text x="304" y="208">03</text>
      <text x="454" y="196">04</text>
      <text x="564" y="148">05</text>
      <text x="640" y="238">06</text>
      <text x="140" y="420">07</text>
      <text x="280" y="460">08</text>
      <text x="620" y="450">09</text>
    </g>
  </g>
</svg>
